<svg width="40" height="40" viewBox="0 0 40 40" fill="none" xmlns="http://www.w3.org/2000/svg">
<path fill-rule="evenodd" clip-rule="evenodd" d="M36.4632 35.6404C36.4632 36.2561 35.9728 36.7552 35.3678 36.7552H33.4383C32.8333 36.7552 32.3428 36.2561 32.3428 35.6404V32.5995C32.3428 32.5994 32.3428 32.5994 32.3428 32.5994C32.3427 32.5994 32.3427 32.5994 32.3427 32.5993V27.1276C32.3427 26.0295 30.9474 25.5928 30.3411 26.5011L27.5754 30.6452C27.1411 31.2959 26.1992 31.2966 25.764 30.6466L22.665 26.0179C22.0579 25.1112 20.6643 25.5485 20.6643 26.6457L20.6643 32.6008L20.6644 35.6404C20.6644 36.2561 20.1739 36.7552 19.5689 36.7552H4.63205C4.02706 36.7552 3.53662 36.2561 3.53662 35.6404V4.35949C3.53662 3.74377 4.02706 3.24463 4.63205 3.24463H35.3678C35.9728 3.24463 36.4632 3.74377 36.4632 4.35949V35.6404ZM7.6571 31.486C7.6571 32.1017 8.14754 32.6008 8.75253 32.6008H15.7593C16.3643 32.6008 16.8548 32.1017 16.8548 31.486V18.06C16.8548 17.4442 17.3452 16.9451 17.9502 16.9451H20.416C20.7799 16.9451 21.1201 17.129 21.3238 17.4359L25.7765 24.1445C26.2071 24.7934 27.1421 24.8013 27.5794 24.157C28.8579 22.2735 31.1467 18.8799 32.18 17.2117C32.288 17.0372 32.3427 16.8368 32.3427 16.6305V8.5139C32.3427 7.89819 31.8523 7.39905 31.2473 7.39905H8.75253C8.14754 7.39905 7.6571 7.89819 7.6571 8.5139V31.486Z" fill="#7C68F0"/>
</svg>
